<svg viewBox="0 0 4704 1824"  version="1.1" xmlns="http://www.w3.org/2000/svg">
<g id="qubit_lines">
<path id="qubit_line:0" d="M64,64 L4672,64 " stroke="black"/>
<text dominant-baseline="central" text-anchor="end" font-family="monospace" font-size="12" x="64" y="64">q0</text>
<path id="qubit_line:1" d="M64,128 L4672,128 " stroke="black"/>
<text dominant-baseline="central" text-anchor="end" font-family="monospace" font-size="12" x="64" y="128">q1</text>
<path id="qubit_line:2" d="M64,192 L4672,192 " stroke="black"/>
<text dominant-baseline="central" text-anchor="end" font-family="monospace" font-size="12" x="64" y="192">q2</text>
<path id="qubit_line:3" d="M64,256 L4672,256 " stroke="black"/>
<text dominant-baseline="central" text-anchor="end" font-family="monospace" font-size="12" x="64" y="256">q3</text>
<path id="qubit_line:4" d="M64,320 L4672,320 " stroke="black"/>
<text dominant-baseline="central" text-anchor="end" font-family="monospace" font-size="12" x="64" y="320">q4</text>
<path id="qubit_line:5" d="M64,384 L4672,384 " stroke="black"/>
<text dominant-baseline="central" text-anchor="end" font-family="monospace" font-size="12" x="64" y="384">q5</text>
<path id="qubit_line:6" d="M64,448 L4672,448 " stroke="black"/>
<text dominant-baseline="central" text-anchor="end" font-family="monospace" font-size="12" x="64" y="448">q6</text>
<path id="qubit_line:7" d="M64,512 L4672,512 " stroke="black"/>
<text dominant-baseline="central" text-anchor="end" font-family="monospace" font-size="12" x="64" y="512">q7</text>
<path id="qubit_line:8" d="M64,576 L4672,576 " stroke="black"/>
<text dominant-baseline="central" text-anchor="end" font-family="monospace" font-size="12" x="64" y="576">q8</text>
<path id="qubit_line:9" d="M64,640 L4672,640 " stroke="black"/>
<text dominant-baseline="central" text-anchor="end" font-family="monospace" font-size="12" x="64" y="640">q9</text>
<path id="qubit_line:10" d="M64,704 L4672,704 " stroke="black"/>
<text dominant-baseline="central" text-anchor="end" font-family="monospace" font-size="12" x="64" y="704">q10</text>
<path id="qubit_line:11" d="M64,768 L4672,768 " stroke="black"/>
<text dominant-baseline="central" text-anchor="end" font-family="monospace" font-size="12" x="64" y="768">q11</text>
<path id="qubit_line:12" d="M64,832 L4672,832 " stroke="black"/>
<text dominant-baseline="central" text-anchor="end" font-family="monospace" font-size="12" x="64" y="832">q12</text>
<path id="qubit_line:13" d="M64,896 L4672,896 " stroke="black"/>
<text dominant-baseline="central" text-anchor="end" font-family="monospace" font-size="12" x="64" y="896">q13</text>
<path id="qubit_line:14" d="M64,960 L4672,960 " stroke="black"/>
<text dominant-baseline="central" text-anchor="end" font-family="monospace" font-size="12" x="64" y="960">q14</text>
<path id="qubit_line:15" d="M64,1024 L4672,1024 " stroke="black"/>
<text dominant-baseline="central" text-anchor="end" font-family="monospace" font-size="12" x="64" y="1024">q15</text>
<path id="qubit_line:16" d="M64,1088 L4672,1088 " stroke="black"/>
<text dominant-baseline="central" text-anchor="end" font-family="monospace" font-size="12" x="64" y="1088">q16</text>
<path id="qubit_line:17" d="M64,1152 L4672,1152 " stroke="black"/>
<text dominant-baseline="central" text-anchor="end" font-family="monospace" font-size="12" x="64" y="1152">q17</text>
<path id="qubit_line:18" d="M64,1216 L4672,1216 " stroke="black"/>
<text dominant-baseline="central" text-anchor="end" font-family="monospace" font-size="12" x="64" y="1216">q18</text>
<path id="qubit_line:19" d="M64,1280 L4672,1280 " stroke="black"/>
<text dominant-baseline="central" text-anchor="end" font-family="monospace" font-size="12" x="64" y="1280">q19</text>
<path id="qubit_line:20" d="M64,1344 L4672,1344 " stroke="black"/>
<text dominant-baseline="central" text-anchor="end" font-family="monospace" font-size="12" x="64" y="1344">q20</text>
<path id="qubit_line:21" d="M64,1408 L4672,1408 " stroke="black"/>
<text dominant-baseline="central" text-anchor="end" font-family="monospace" font-size="12" x="64" y="1408">q21</text>
<path id="qubit_line:22" d="M64,1472 L4672,1472 " stroke="black"/>
<text dominant-baseline="central" text-anchor="end" font-family="monospace" font-size="12" x="64" y="1472">q22</text>
<path id="qubit_line:23" d="M64,1536 L4672,1536 " stroke="black"/>
<text dominant-baseline="central" text-anchor="end" font-family="monospace" font-size="12" x="64" y="1536">q23</text>
<path id="qubit_line:24" d="M64,1600 L4672,1600 " stroke="black"/>
<text dominant-baseline="central" text-anchor="end" font-family="monospace" font-size="12" x="64" y="1600">q24</text>
<path id="qubit_line:25" d="M64,1664 L4672,1664 " stroke="black"/>
<text dominant-baseline="central" text-anchor="end" font-family="monospace" font-size="12" x="64" y="1664">q25</text>
<path id="qubit_line:26" d="M64,1728 L4672,1728 " stroke="black"/>
<text dominant-baseline="central" text-anchor="end" font-family="monospace" font-size="12" x="64" y="1728">q26</text>
</g>
<rect x="80" y="112" width="224" height="32" stroke="black" fill="white"/>
<text dominant-baseline="central" text-anchor="middle" font-family="monospace" font-size="16" x="192" y="128">COORDS(2,0)</text>
<rect x="80" y="176" width="224" height="32" stroke="black" fill="white"/>
<text dominant-baseline="central" text-anchor="middle" font-family="monospace" font-size="16" x="192" y="192">COORDS(2,2)</text>
<rect x="80" y="240" width="224" height="32" stroke="black" fill="white"/>
<text dominant-baseline="central" text-anchor="middle" font-family="monospace" font-size="16" x="192" y="256">COORDS(2,4)</text>
<rect x="80" y="304" width="224" height="32" stroke="black" fill="white"/>
<text dominant-baseline="central" text-anchor="middle" font-family="monospace" font-size="16" x="192" y="320">COORDS(4,4)</text>
<rect x="80" y="368" width="224" height="32" stroke="black" fill="white"/>
<text dominant-baseline="central" text-anchor="middle" font-family="monospace" font-size="16" x="192" y="384">COORDS(0,6)</text>
<rect x="80" y="432" width="224" height="32" stroke="black" fill="white"/>
<text dominant-baseline="central" text-anchor="middle" font-family="monospace" font-size="16" x="192" y="448">COORDS(2,6)</text>
<rect x="80" y="496" width="224" height="32" stroke="black" fill="white"/>
<text dominant-baseline="central" text-anchor="middle" font-family="monospace" font-size="16" x="192" y="512">COORDS(4,6)</text>
<rect x="80" y="560" width="224" height="32" stroke="black" fill="white"/>
<text dominant-baseline="central" text-anchor="middle" font-family="monospace" font-size="16" x="192" y="576">COORDS(4,0)</text>
<rect x="80" y="624" width="224" height="32" stroke="black" fill="white"/>
<text dominant-baseline="central" text-anchor="middle" font-family="monospace" font-size="16" x="192" y="640">COORDS(6,0)</text>
<rect x="80" y="688" width="224" height="32" stroke="black" fill="white"/>
<text dominant-baseline="central" text-anchor="middle" font-family="monospace" font-size="16" x="192" y="704">COORDS(4,2)</text>
<rect x="80" y="752" width="224" height="32" stroke="black" fill="white"/>
<text dominant-baseline="central" text-anchor="middle" font-family="monospace" font-size="16" x="192" y="768">COORDS(6,2)</text>
<rect x="80" y="816" width="224" height="32" stroke="black" fill="white"/>
<text dominant-baseline="central" text-anchor="middle" font-family="monospace" font-size="16" x="192" y="832">COORDS(1,4)</text>
<rect x="80" y="880" width="224" height="32" stroke="black" fill="white"/>
<text dominant-baseline="central" text-anchor="middle" font-family="monospace" font-size="16" x="192" y="896">COORDS(3,2)</text>
<rect x="80" y="944" width="224" height="32" stroke="black" fill="white"/>
<text dominant-baseline="central" text-anchor="middle" font-family="monospace" font-size="16" x="192" y="960">COORDS(3,5)</text>
<rect x="80" y="1008" width="224" height="32" stroke="black" fill="white"/>
<text dominant-baseline="central" text-anchor="middle" font-family="monospace" font-size="16" x="192" y="1024">COORDS(5,4)</text>
<rect x="80" y="1072" width="224" height="32" stroke="black" fill="white"/>
<text dominant-baseline="central" text-anchor="middle" font-family="monospace" font-size="16" x="192" y="1088">COORDS(5,1)</text>
<rect x="80" y="1136" width="224" height="32" stroke="black" fill="white"/>
<text dominant-baseline="central" text-anchor="middle" font-family="monospace" font-size="16" x="192" y="1152">COORDS(1,6)</text>
<rect x="80" y="1200" width="224" height="32" stroke="black" fill="white"/>
<text dominant-baseline="central" text-anchor="middle" font-family="monospace" font-size="16" x="192" y="1216">COORDS(2,3)</text>
<rect x="80" y="1264" width="224" height="32" stroke="black" fill="white"/>
<text dominant-baseline="central" text-anchor="middle" font-family="monospace" font-size="16" x="192" y="1280">COORDS(4,3)</text>
<rect x="80" y="1328" width="224" height="32" stroke="black" fill="white"/>
<text dominant-baseline="central" text-anchor="middle" font-family="monospace" font-size="16" x="192" y="1344">COORDS(3,0)</text>
<rect x="80" y="1392" width="224" height="32" stroke="black" fill="white"/>
<text dominant-baseline="central" text-anchor="middle" font-family="monospace" font-size="16" x="192" y="1408">COORDS(6,1)</text>
<rect x="80" y="1456" width="224" height="32" stroke="black" fill="white"/>
<text dominant-baseline="central" text-anchor="middle" font-family="monospace" font-size="16" x="192" y="1472">COORDS(1,4)</text>
<rect x="80" y="1520" width="224" height="32" stroke="black" fill="white"/>
<text dominant-baseline="central" text-anchor="middle" font-family="monospace" font-size="16" x="192" y="1536">COORDS(3,2)</text>
<rect x="80" y="1584" width="224" height="32" stroke="black" fill="white"/>
<text dominant-baseline="central" text-anchor="middle" font-family="monospace" font-size="16" x="192" y="1600">COORDS(3,5)</text>
<rect x="80" y="1648" width="224" height="32" stroke="black" fill="white"/>
<text dominant-baseline="central" text-anchor="middle" font-family="monospace" font-size="16" x="192" y="1664">COORDS(5,4)</text>
<rect x="80" y="1712" width="224" height="32" stroke="black" fill="white"/>
<text dominant-baseline="central" text-anchor="middle" font-family="monospace" font-size="16" x="192" y="1728">COORDS(5,1)</text>
<rect x="336" y="112" width="32" height="32" stroke="black" fill="black"/>
<text dominant-baseline="central" text-anchor="middle" font-family="monospace" font-size="30" x="352" y="128" fill="white">R</text>
<rect x="336" y="176" width="32" height="32" stroke="black" fill="black"/>
<text dominant-baseline="central" text-anchor="middle" font-family="monospace" font-size="30" x="352" y="192" fill="white">R</text>
<rect x="336" y="240" width="32" height="32" stroke="black" fill="black"/>
<text dominant-baseline="central" text-anchor="middle" font-family="monospace" font-size="30" x="352" y="256" fill="white">R</text>
<rect x="336" y="304" width="32" height="32" stroke="black" fill="black"/>
<text dominant-baseline="central" text-anchor="middle" font-family="monospace" font-size="30" x="352" y="320" fill="white">R</text>
<rect x="336" y="368" width="32" height="32" stroke="black" fill="black"/>
<text dominant-baseline="central" text-anchor="middle" font-family="monospace" font-size="30" x="352" y="384" fill="white">R</text>
<rect x="336" y="432" width="32" height="32" stroke="black" fill="black"/>
<text dominant-baseline="central" text-anchor="middle" font-family="monospace" font-size="30" x="352" y="448" fill="white">R</text>
<rect x="336" y="496" width="32" height="32" stroke="black" fill="black"/>
<text dominant-baseline="central" text-anchor="middle" font-family="monospace" font-size="30" x="352" y="512" fill="white">R</text>
<rect x="336" y="560" width="32" height="32" stroke="black" fill="black"/>
<text dominant-baseline="central" text-anchor="middle" font-family="monospace" font-size="30" x="352" y="576" fill="white">R</text>
<rect x="336" y="624" width="32" height="32" stroke="black" fill="black"/>
<text dominant-baseline="central" text-anchor="middle" font-family="monospace" font-size="30" x="352" y="640" fill="white">R</text>
<rect x="336" y="688" width="32" height="32" stroke="black" fill="black"/>
<text dominant-baseline="central" text-anchor="middle" font-family="monospace" font-size="30" x="352" y="704" fill="white">R</text>
<rect x="336" y="752" width="32" height="32" stroke="black" fill="black"/>
<text dominant-baseline="central" text-anchor="middle" font-family="monospace" font-size="30" x="352" y="768" fill="white">R</text>
<rect x="336" y="816" width="32" height="32" stroke="black" fill="black"/>
<text dominant-baseline="central" text-anchor="middle" font-family="monospace" font-size="30" x="352" y="832" fill="white">R</text>
<rect x="336" y="880" width="32" height="32" stroke="black" fill="black"/>
<text dominant-baseline="central" text-anchor="middle" font-family="monospace" font-size="30" x="352" y="896" fill="white">R</text>
<rect x="336" y="944" width="32" height="32" stroke="black" fill="black"/>
<text dominant-baseline="central" text-anchor="middle" font-family="monospace" font-size="30" x="352" y="960" fill="white">R</text>
<rect x="336" y="1008" width="32" height="32" stroke="black" fill="black"/>
<text dominant-baseline="central" text-anchor="middle" font-family="monospace" font-size="30" x="352" y="1024" fill="white">R</text>
<rect x="336" y="1072" width="32" height="32" stroke="black" fill="black"/>
<text dominant-baseline="central" text-anchor="middle" font-family="monospace" font-size="30" x="352" y="1088" fill="white">R</text>
<rect x="336" y="1136" width="32" height="32" stroke="black" fill="black"/>
<text dominant-baseline="central" text-anchor="middle" font-family="monospace" font-size="30" x="352" y="1152" fill="white">R</text>
<rect x="336" y="1200" width="32" height="32" stroke="black" fill="black"/>
<text dominant-baseline="central" text-anchor="middle" font-family="monospace" font-size="30" x="352" y="1216" fill="white">R</text>
<rect x="336" y="1264" width="32" height="32" stroke="black" fill="black"/>
<text dominant-baseline="central" text-anchor="middle" font-family="monospace" font-size="30" x="352" y="1280" fill="white">R</text>
<rect x="336" y="1328" width="32" height="32" stroke="black" fill="black"/>
<text dominant-baseline="central" text-anchor="middle" font-family="monospace" font-size="30" x="352" y="1344" fill="white">R</text>
<rect x="336" y="1392" width="32" height="32" stroke="black" fill="black"/>
<text dominant-baseline="central" text-anchor="middle" font-family="monospace" font-size="30" x="352" y="1408" fill="white">R</text>
<rect x="336" y="1456" width="32" height="32" stroke="black" fill="black"/>
<text dominant-baseline="central" text-anchor="middle" font-family="monospace" font-size="30" x="352" y="1472" fill="white">R</text>
<rect x="336" y="1520" width="32" height="32" stroke="black" fill="black"/>
<text dominant-baseline="central" text-anchor="middle" font-family="monospace" font-size="30" x="352" y="1536" fill="white">R</text>
<rect x="336" y="1584" width="32" height="32" stroke="black" fill="black"/>
<text dominant-baseline="central" text-anchor="middle" font-family="monospace" font-size="30" x="352" y="1600" fill="white">R</text>
<rect x="336" y="1648" width="32" height="32" stroke="black" fill="black"/>
<text dominant-baseline="central" text-anchor="middle" font-family="monospace" font-size="30" x="352" y="1664" fill="white">R</text>
<rect x="336" y="1712" width="32" height="32" stroke="black" fill="black"/>
<text dominant-baseline="central" text-anchor="middle" font-family="monospace" font-size="30" x="352" y="1728" fill="white">R</text>
<path d="M68,40 L68,32 L380,32 L380,40 " stroke="black" fill="none"/>
<path d="M68,1784 L68,1792 L380,1792 L380,1784 " stroke="black" fill="none"/>
<path d="M416,192 L416,832 " stroke="black"/>
<circle cx="416" cy="192" r="12" stroke="none" fill="black"/>
<circle cx="416" cy="832" r="12" stroke="black" fill="white"/>
<path d="M404,832 L428,832 M416,820 L416,844 " stroke="black"/>
<path d="M480,128 L480,896 " stroke="black"/>
<circle cx="480" cy="128" r="12" stroke="none" fill="black"/>
<circle cx="480" cy="896" r="12" stroke="black" fill="white"/>
<path d="M468,896 L492,896 M480,884 L480,908 " stroke="black"/>
<path d="M544,256 L544,960 " stroke="black"/>
<circle cx="544" cy="256" r="12" stroke="none" fill="black"/>
<circle cx="544" cy="960" r="12" stroke="black" fill="white"/>
<path d="M532,960 L556,960 M544,948 L544,972 " stroke="black"/>
<path d="M388,40 L388,32 L572,32 L572,40 " stroke="black" fill="none"/>
<path d="M388,1784 L388,1792 L572,1792 L572,1784 " stroke="black" fill="none"/>
<path d="M608,256 L608,832 " stroke="black"/>
<circle cx="608" cy="256" r="12" stroke="none" fill="black"/>
<circle cx="608" cy="832" r="12" stroke="black" fill="white"/>
<path d="M596,832 L620,832 M608,820 L608,844 " stroke="black"/>
<path d="M672,192 L672,896 " stroke="black"/>
<circle cx="672" cy="192" r="12" stroke="none" fill="black"/>
<circle cx="672" cy="896" r="12" stroke="black" fill="white"/>
<path d="M660,896 L684,896 M672,884 L672,908 " stroke="black"/>
<path d="M736,320 L736,960 " stroke="black"/>
<circle cx="736" cy="320" r="12" stroke="none" fill="black"/>
<circle cx="736" cy="960" r="12" stroke="black" fill="white"/>
<path d="M724,960 L748,960 M736,948 L736,972 " stroke="black"/>
<path d="M580,40 L580,32 L764,32 L764,40 " stroke="black" fill="none"/>
<path d="M580,1784 L580,1792 L764,1792 L764,1784 " stroke="black" fill="none"/>
<path d="M800,384 L800,832 " stroke="black"/>
<circle cx="800" cy="384" r="12" stroke="none" fill="black"/>
<circle cx="800" cy="832" r="12" stroke="black" fill="white"/>
<path d="M788,832 L812,832 M800,820 L800,844 " stroke="black"/>
<path d="M864,256 L864,896 " stroke="black"/>
<circle cx="864" cy="256" r="12" stroke="none" fill="black"/>
<circle cx="864" cy="896" r="12" stroke="black" fill="white"/>
<path d="M852,896 L876,896 M864,884 L864,908 " stroke="black"/>
<path d="M928,448 L928,960 " stroke="black"/>
<circle cx="928" cy="448" r="12" stroke="none" fill="black"/>
<circle cx="928" cy="960" r="12" stroke="black" fill="white"/>
<path d="M916,960 L940,960 M928,948 L928,972 " stroke="black"/>
<path d="M772,40 L772,32 L956,32 L956,40 " stroke="black" fill="none"/>
<path d="M772,1784 L772,1792 L956,1792 L956,1784 " stroke="black" fill="none"/>
<path d="M992,448 L992,832 " stroke="black"/>
<circle cx="992" cy="448" r="12" stroke="none" fill="black"/>
<circle cx="992" cy="832" r="12" stroke="black" fill="white"/>
<path d="M980,832 L1004,832 M992,820 L992,844 " stroke="black"/>
<path d="M1056,320 L1056,896 " stroke="black"/>
<circle cx="1056" cy="320" r="12" stroke="none" fill="black"/>
<circle cx="1056" cy="896" r="12" stroke="black" fill="white"/>
<path d="M1044,896 L1068,896 M1056,884 L1056,908 " stroke="black"/>
<path d="M1120,512 L1120,960 " stroke="black"/>
<circle cx="1120" cy="512" r="12" stroke="none" fill="black"/>
<circle cx="1120" cy="960" r="12" stroke="black" fill="white"/>
<path d="M1108,960 L1132,960 M1120,948 L1120,972 " stroke="black"/>
<path d="M964,40 L964,32 L1148,32 L1148,40 " stroke="black" fill="none"/>
<path d="M964,1784 L964,1792 L1148,1792 L1148,1784 " stroke="black" fill="none"/>
<rect x="1168" y="816" width="32" height="32" stroke="black" fill="black"/>
<text dominant-baseline="central" text-anchor="middle" font-family="monospace" font-size="24" x="1184" y="832" fill="white">MR</text>
<text text-anchor="middle" font-family="monospace" font-size="8" x="1184" y="812">rec[0]</text>
<rect x="1168" y="880" width="32" height="32" stroke="black" fill="black"/>
<text dominant-baseline="central" text-anchor="middle" font-family="monospace" font-size="24" x="1184" y="896" fill="white">MR</text>
<text text-anchor="middle" font-family="monospace" font-size="8" x="1184" y="876">rec[1]</text>
<rect x="1168" y="944" width="32" height="32" stroke="black" fill="black"/>
<text dominant-baseline="central" text-anchor="middle" font-family="monospace" font-size="24" x="1184" y="960" fill="white">MR</text>
<text text-anchor="middle" font-family="monospace" font-size="8" x="1184" y="940">rec[2]</text>
<rect x="1232" y="816" width="160" height="32" stroke="black" fill="lightgray"/>
<text dominant-baseline="central" text-anchor="middle" font-family="monospace" font-size="16" x="1312" y="832">DETECTOR</text>
<text text-anchor="middle" font-family="monospace" font-size="8" x="1312" y="812">D0 = rec[0]</text>
<rect x="1232" y="880" width="160" height="32" stroke="black" fill="lightgray"/>
<text dominant-baseline="central" text-anchor="middle" font-family="monospace" font-size="16" x="1312" y="896">DETECTOR</text>
<text text-anchor="middle" font-family="monospace" font-size="8" x="1312" y="876">D1 = rec[1]</text>
<rect x="1232" y="944" width="160" height="32" stroke="black" fill="lightgray"/>
<text dominant-baseline="central" text-anchor="middle" font-family="monospace" font-size="16" x="1312" y="960">DETECTOR</text>
<text text-anchor="middle" font-family="monospace" font-size="8" x="1312" y="940">D2 = rec[2]</text>
<rect x="1232" y="1456" width="32" height="32" stroke="black" fill="white"/>
<text dominant-baseline="central" text-anchor="middle" font-family="monospace" font-size="30" x="1248" y="1472">H</text>
<rect x="1232" y="1520" width="32" height="32" stroke="black" fill="white"/>
<text dominant-baseline="central" text-anchor="middle" font-family="monospace" font-size="30" x="1248" y="1536">H</text>
<rect x="1232" y="1584" width="32" height="32" stroke="black" fill="white"/>
<text dominant-baseline="central" text-anchor="middle" font-family="monospace" font-size="30" x="1248" y="1600">H</text>
<path d="M1440,192 L1440,1472 " stroke="black"/>
<circle cx="1440" cy="1472" r="12" stroke="none" fill="black"/>
<circle cx="1440" cy="192" r="12" stroke="black" fill="white"/>
<path d="M1428,192 L1452,192 M1440,180 L1440,204 " stroke="black"/>
<path d="M1504,128 L1504,1536 " stroke="black"/>
<circle cx="1504" cy="1536" r="12" stroke="none" fill="black"/>
<circle cx="1504" cy="128" r="12" stroke="black" fill="white"/>
<path d="M1492,128 L1516,128 M1504,116 L1504,140 " stroke="black"/>
<path d="M1568,256 L1568,1600 " stroke="black"/>
<circle cx="1568" cy="1600" r="12" stroke="none" fill="black"/>
<circle cx="1568" cy="256" r="12" stroke="black" fill="white"/>
<path d="M1556,256 L1580,256 M1568,244 L1568,268 " stroke="black"/>
<path d="M1156,40 L1156,32 L1596,32 L1596,40 " stroke="black" fill="none"/>
<path d="M1156,1784 L1156,1792 L1596,1792 L1596,1784 " stroke="black" fill="none"/>
<path d="M1632,256 L1632,1472 " stroke="black"/>
<circle cx="1632" cy="1472" r="12" stroke="none" fill="black"/>
<circle cx="1632" cy="256" r="12" stroke="black" fill="white"/>
<path d="M1620,256 L1644,256 M1632,244 L1632,268 " stroke="black"/>
<path d="M1696,192 L1696,1536 " stroke="black"/>
<circle cx="1696" cy="1536" r="12" stroke="none" fill="black"/>
<circle cx="1696" cy="192" r="12" stroke="black" fill="white"/>
<path d="M1684,192 L1708,192 M1696,180 L1696,204 " stroke="black"/>
<path d="M1760,320 L1760,1600 " stroke="black"/>
<circle cx="1760" cy="1600" r="12" stroke="none" fill="black"/>
<circle cx="1760" cy="320" r="12" stroke="black" fill="white"/>
<path d="M1748,320 L1772,320 M1760,308 L1760,332 " stroke="black"/>
<path d="M1604,40 L1604,32 L1788,32 L1788,40 " stroke="black" fill="none"/>
<path d="M1604,1784 L1604,1792 L1788,1792 L1788,1784 " stroke="black" fill="none"/>
<path d="M1824,384 L1824,1472 " stroke="black"/>
<circle cx="1824" cy="1472" r="12" stroke="none" fill="black"/>
<circle cx="1824" cy="384" r="12" stroke="black" fill="white"/>
<path d="M1812,384 L1836,384 M1824,372 L1824,396 " stroke="black"/>
<path d="M1888,256 L1888,1536 " stroke="black"/>
<circle cx="1888" cy="1536" r="12" stroke="none" fill="black"/>
<circle cx="1888" cy="256" r="12" stroke="black" fill="white"/>
<path d="M1876,256 L1900,256 M1888,244 L1888,268 " stroke="black"/>
<path d="M1952,448 L1952,1600 " stroke="black"/>
<circle cx="1952" cy="1600" r="12" stroke="none" fill="black"/>
<circle cx="1952" cy="448" r="12" stroke="black" fill="white"/>
<path d="M1940,448 L1964,448 M1952,436 L1952,460 " stroke="black"/>
<path d="M1796,40 L1796,32 L1980,32 L1980,40 " stroke="black" fill="none"/>
<path d="M1796,1784 L1796,1792 L1980,1792 L1980,1784 " stroke="black" fill="none"/>
<path d="M2016,448 L2016,1472 " stroke="black"/>
<circle cx="2016" cy="1472" r="12" stroke="none" fill="black"/>
<circle cx="2016" cy="448" r="12" stroke="black" fill="white"/>
<path d="M2004,448 L2028,448 M2016,436 L2016,460 " stroke="black"/>
<path d="M2080,320 L2080,1536 " stroke="black"/>
<circle cx="2080" cy="1536" r="12" stroke="none" fill="black"/>
<circle cx="2080" cy="320" r="12" stroke="black" fill="white"/>
<path d="M2068,320 L2092,320 M2080,308 L2080,332 " stroke="black"/>
<path d="M2144,512 L2144,1600 " stroke="black"/>
<circle cx="2144" cy="1600" r="12" stroke="none" fill="black"/>
<circle cx="2144" cy="512" r="12" stroke="black" fill="white"/>
<path d="M2132,512 L2156,512 M2144,500 L2144,524 " stroke="black"/>
<path d="M1988,40 L1988,32 L2172,32 L2172,40 " stroke="black" fill="none"/>
<path d="M1988,1784 L1988,1792 L2172,1792 L2172,1784 " stroke="black" fill="none"/>
<rect x="2192" y="1456" width="32" height="32" stroke="black" fill="white"/>
<text dominant-baseline="central" text-anchor="middle" font-family="monospace" font-size="30" x="2208" y="1472">H</text>
<rect x="2192" y="1520" width="32" height="32" stroke="black" fill="white"/>
<text dominant-baseline="central" text-anchor="middle" font-family="monospace" font-size="30" x="2208" y="1536">H</text>
<rect x="2192" y="1584" width="32" height="32" stroke="black" fill="white"/>
<text dominant-baseline="central" text-anchor="middle" font-family="monospace" font-size="30" x="2208" y="1600">H</text>
<rect x="2256" y="1456" width="32" height="32" stroke="black" fill="black"/>
<text dominant-baseline="central" text-anchor="middle" font-family="monospace" font-size="24" x="2272" y="1472" fill="white">MR</text>
<text text-anchor="middle" font-family="monospace" font-size="8" x="2272" y="1452">rec[3]</text>
<rect x="2256" y="1520" width="32" height="32" stroke="black" fill="black"/>
<text dominant-baseline="central" text-anchor="middle" font-family="monospace" font-size="24" x="2272" y="1536" fill="white">MR</text>
<text text-anchor="middle" font-family="monospace" font-size="8" x="2272" y="1516">rec[4]</text>
<rect x="2256" y="1584" width="32" height="32" stroke="black" fill="black"/>
<text dominant-baseline="central" text-anchor="middle" font-family="monospace" font-size="24" x="2272" y="1600" fill="white">MR</text>
<text text-anchor="middle" font-family="monospace" font-size="8" x="2272" y="1580">rec[5]</text>
<rect x="2320" y="1456" width="160" height="32" stroke="black" fill="lightgray"/>
<text dominant-baseline="central" text-anchor="middle" font-family="monospace" font-size="16" x="2400" y="1472">DETECTOR</text>
<text text-anchor="middle" font-family="monospace" font-size="8" x="2400" y="1452">D3 = rec[3]</text>
<rect x="2320" y="1520" width="160" height="32" stroke="black" fill="lightgray"/>
<text dominant-baseline="central" text-anchor="middle" font-family="monospace" font-size="16" x="2400" y="1536">DETECTOR</text>
<text text-anchor="middle" font-family="monospace" font-size="8" x="2400" y="1516">D4 = rec[4]</text>
<rect x="2320" y="1584" width="160" height="32" stroke="black" fill="lightgray"/>
<text dominant-baseline="central" text-anchor="middle" font-family="monospace" font-size="16" x="2400" y="1600">DETECTOR</text>
<text text-anchor="middle" font-family="monospace" font-size="8" x="2400" y="1580">D5 = rec[5]</text>
<rect x="2320" y="560" width="32" height="32" stroke="black" fill="black"/>
<text dominant-baseline="central" text-anchor="middle" font-family="monospace" font-size="24" x="2336" y="576" fill="white">MR</text>
<text text-anchor="middle" font-family="monospace" font-size="8" x="2336" y="556">rec[6]</text>
<rect x="2320" y="624" width="32" height="32" stroke="black" fill="black"/>
<text dominant-baseline="central" text-anchor="middle" font-family="monospace" font-size="24" x="2336" y="640" fill="white">MR</text>
<text text-anchor="middle" font-family="monospace" font-size="8" x="2336" y="620">rec[7]</text>
<rect x="2320" y="688" width="32" height="32" stroke="black" fill="black"/>
<text dominant-baseline="central" text-anchor="middle" font-family="monospace" font-size="24" x="2336" y="704" fill="white">MR</text>
<text text-anchor="middle" font-family="monospace" font-size="8" x="2336" y="684">rec[8]</text>
<rect x="2320" y="752" width="32" height="32" stroke="black" fill="black"/>
<text dominant-baseline="central" text-anchor="middle" font-family="monospace" font-size="24" x="2336" y="768" fill="white">MR</text>
<text text-anchor="middle" font-family="monospace" font-size="8" x="2336" y="748">rec[9]</text>
<rect x="2320" y="1136" width="32" height="32" stroke="black" fill="white"/>
<text dominant-baseline="central" text-anchor="middle" font-family="monospace" font-size="30" x="2336" y="1152">H</text>
<rect x="2320" y="1200" width="32" height="32" stroke="black" fill="white"/>
<text dominant-baseline="central" text-anchor="middle" font-family="monospace" font-size="30" x="2336" y="1216">H</text>
<rect x="2320" y="1264" width="32" height="32" stroke="black" fill="white"/>
<text dominant-baseline="central" text-anchor="middle" font-family="monospace" font-size="30" x="2336" y="1280">H</text>
<rect x="2320" y="1328" width="32" height="32" stroke="black" fill="white"/>
<text dominant-baseline="central" text-anchor="middle" font-family="monospace" font-size="30" x="2336" y="1344">H</text>
<path d="M2528,384 L2528,1152 " stroke="black"/>
<circle cx="2528" cy="1152" r="12" stroke="none" fill="black"/>
<circle cx="2528" cy="384" r="12" stroke="black" fill="white"/>
<path d="M2516,384 L2540,384 M2528,372 L2528,396 " stroke="black"/>
<path d="M2592,192 L2592,1216 " stroke="black"/>
<circle cx="2592" cy="1216" r="12" stroke="none" fill="black"/>
<circle cx="2592" cy="192" r="12" stroke="black" fill="white"/>
<path d="M2580,192 L2604,192 M2592,180 L2592,204 " stroke="black"/>
<path d="M2656,320 L2656,1280 " stroke="black"/>
<circle cx="2656" cy="1280" r="12" stroke="none" fill="black"/>
<circle cx="2656" cy="320" r="12" stroke="black" fill="white"/>
<path d="M2644,320 L2668,320 M2656,308 L2656,332 " stroke="black"/>
<path d="M2720,128 L2720,1344 " stroke="black"/>
<circle cx="2720" cy="1344" r="12" stroke="none" fill="black"/>
<circle cx="2720" cy="128" r="12" stroke="black" fill="white"/>
<path d="M2708,128 L2732,128 M2720,116 L2720,140 " stroke="black"/>
<path d="M2180,40 L2180,32 L2748,32 L2748,40 " stroke="black" fill="none"/>
<path d="M2180,1784 L2180,1792 L2748,1792 L2748,1784 " stroke="black" fill="none"/>
<path d="M2784,448 L2784,1152 " stroke="black"/>
<circle cx="2784" cy="1152" r="12" stroke="none" fill="black"/>
<circle cx="2784" cy="448" r="12" stroke="black" fill="white"/>
<path d="M2772,448 L2796,448 M2784,436 L2784,460 " stroke="black"/>
<path d="M2848,256 L2848,1216 " stroke="black"/>
<circle cx="2848" cy="1216" r="12" stroke="none" fill="black"/>
<circle cx="2848" cy="256" r="12" stroke="black" fill="white"/>
<path d="M2836,256 L2860,256 M2848,244 L2848,268 " stroke="black"/>
<path d="M2912,704 L2912,1280 " stroke="black"/>
<circle cx="2912" cy="1280" r="12" stroke="none" fill="black"/>
<circle cx="2912" cy="704" r="12" stroke="black" fill="white"/>
<path d="M2900,704 L2924,704 M2912,692 L2912,716 " stroke="black"/>
<path d="M2976,576 L2976,1344 " stroke="black"/>
<circle cx="2976" cy="1344" r="12" stroke="none" fill="black"/>
<circle cx="2976" cy="576" r="12" stroke="black" fill="white"/>
<path d="M2964,576 L2988,576 M2976,564 L2976,588 " stroke="black"/>
<path d="M2756,40 L2756,32 L3004,32 L3004,40 " stroke="black" fill="none"/>
<path d="M2756,1784 L2756,1792 L3004,1792 L3004,1784 " stroke="black" fill="none"/>
<rect x="3024" y="1136" width="32" height="32" stroke="black" fill="white"/>
<text dominant-baseline="central" text-anchor="middle" font-family="monospace" font-size="30" x="3040" y="1152">H</text>
<rect x="3024" y="1200" width="32" height="32" stroke="black" fill="white"/>
<text dominant-baseline="central" text-anchor="middle" font-family="monospace" font-size="30" x="3040" y="1216">H</text>
<rect x="3024" y="1264" width="32" height="32" stroke="black" fill="white"/>
<text dominant-baseline="central" text-anchor="middle" font-family="monospace" font-size="30" x="3040" y="1280">H</text>
<rect x="3024" y="1328" width="32" height="32" stroke="black" fill="white"/>
<text dominant-baseline="central" text-anchor="middle" font-family="monospace" font-size="30" x="3040" y="1344">H</text>
<rect x="3088" y="1136" width="32" height="32" stroke="black" fill="black"/>
<text dominant-baseline="central" text-anchor="middle" font-family="monospace" font-size="24" x="3104" y="1152" fill="white">MR</text>
<text text-anchor="middle" font-family="monospace" font-size="8" x="3104" y="1132">rec[10]</text>
<rect x="3088" y="1200" width="32" height="32" stroke="black" fill="black"/>
<text dominant-baseline="central" text-anchor="middle" font-family="monospace" font-size="24" x="3104" y="1216" fill="white">MR</text>
<text text-anchor="middle" font-family="monospace" font-size="8" x="3104" y="1196">rec[11]</text>
<rect x="3088" y="1264" width="32" height="32" stroke="black" fill="black"/>
<text dominant-baseline="central" text-anchor="middle" font-family="monospace" font-size="24" x="3104" y="1280" fill="white">MR</text>
<text text-anchor="middle" font-family="monospace" font-size="8" x="3104" y="1260">rec[12]</text>
<rect x="3088" y="1328" width="32" height="32" stroke="black" fill="black"/>
<text dominant-baseline="central" text-anchor="middle" font-family="monospace" font-size="24" x="3104" y="1344" fill="white">MR</text>
<text text-anchor="middle" font-family="monospace" font-size="8" x="3104" y="1324">rec[13]</text>
<path d="M3012,40 L3012,32 L3132,32 L3132,40 " stroke="black" fill="none"/>
<path d="M3012,1784 L3012,1792 L3132,1792 L3132,1784 " stroke="black" fill="none"/>
<rect x="3152" y="1584" width="32" height="32" stroke="black" fill="white"/>
<text dominant-baseline="central" text-anchor="middle" font-family="monospace" font-size="30" x="3168" y="1600">H</text>
<rect x="3152" y="1712" width="32" height="32" stroke="black" fill="white"/>
<text dominant-baseline="central" text-anchor="middle" font-family="monospace" font-size="30" x="3168" y="1728">H</text>
<path d="M3232,256 L3232,1600 " stroke="black"/>
<circle cx="3232" cy="1600" r="12" stroke="none" fill="black"/>
<circle cx="3232" cy="256" r="12" stroke="black" fill="white"/>
<path d="M3220,256 L3244,256 M3232,244 L3232,268 " stroke="black"/>
<path d="M3296,576 L3296,1728 " stroke="black"/>
<circle cx="3296" cy="1728" r="12" stroke="none" fill="black"/>
<circle cx="3296" cy="576" r="12" stroke="black" fill="white"/>
<path d="M3284,576 L3308,576 M3296,564 L3296,588 " stroke="black"/>
<path d="M3140,40 L3140,32 L3324,32 L3324,40 " stroke="black" fill="none"/>
<path d="M3140,1784 L3140,1792 L3324,1792 L3324,1784 " stroke="black" fill="none"/>
<path d="M3360,320 L3360,1600 " stroke="black"/>
<circle cx="3360" cy="1600" r="12" stroke="none" fill="black"/>
<circle cx="3360" cy="320" r="12" stroke="black" fill="white"/>
<path d="M3348,320 L3372,320 M3360,308 L3360,332 " stroke="black"/>
<path d="M3424,640 L3424,1728 " stroke="black"/>
<circle cx="3424" cy="1728" r="12" stroke="none" fill="black"/>
<circle cx="3424" cy="640" r="12" stroke="black" fill="white"/>
<path d="M3412,640 L3436,640 M3424,628 L3424,652 " stroke="black"/>
<path d="M3332,40 L3332,32 L3452,32 L3452,40 " stroke="black" fill="none"/>
<path d="M3332,1784 L3332,1792 L3452,1792 L3452,1784 " stroke="black" fill="none"/>
<path d="M3488,448 L3488,1600 " stroke="black"/>
<circle cx="3488" cy="1600" r="12" stroke="none" fill="black"/>
<circle cx="3488" cy="448" r="12" stroke="black" fill="white"/>
<path d="M3476,448 L3500,448 M3488,436 L3488,460 " stroke="black"/>
<path d="M3552,704 L3552,1728 " stroke="black"/>
<circle cx="3552" cy="1728" r="12" stroke="none" fill="black"/>
<circle cx="3552" cy="704" r="12" stroke="black" fill="white"/>
<path d="M3540,704 L3564,704 M3552,692 L3552,716 " stroke="black"/>
<path d="M3460,40 L3460,32 L3580,32 L3580,40 " stroke="black" fill="none"/>
<path d="M3460,1784 L3460,1792 L3580,1792 L3580,1784 " stroke="black" fill="none"/>
<path d="M3616,512 L3616,1600 " stroke="black"/>
<circle cx="3616" cy="1600" r="12" stroke="none" fill="black"/>
<circle cx="3616" cy="512" r="12" stroke="black" fill="white"/>
<path d="M3604,512 L3628,512 M3616,500 L3616,524 " stroke="black"/>
<path d="M3680,768 L3680,1728 " stroke="black"/>
<circle cx="3680" cy="1728" r="12" stroke="none" fill="black"/>
<circle cx="3680" cy="768" r="12" stroke="black" fill="white"/>
<path d="M3668,768 L3692,768 M3680,756 L3680,780 " stroke="black"/>
<path d="M3588,40 L3588,32 L3708,32 L3708,40 " stroke="black" fill="none"/>
<path d="M3588,1784 L3588,1792 L3708,1792 L3708,1784 " stroke="black" fill="none"/>
<rect x="3728" y="1584" width="32" height="32" stroke="black" fill="white"/>
<text dominant-baseline="central" text-anchor="middle" font-family="monospace" font-size="30" x="3744" y="1600">H</text>
<rect x="3728" y="1712" width="32" height="32" stroke="black" fill="white"/>
<text dominant-baseline="central" text-anchor="middle" font-family="monospace" font-size="30" x="3744" y="1728">H</text>
<rect x="3792" y="1584" width="32" height="32" stroke="black" fill="black"/>
<text dominant-baseline="central" text-anchor="middle" font-family="monospace" font-size="24" x="3808" y="1600" fill="white">MR</text>
<text text-anchor="middle" font-family="monospace" font-size="8" x="3808" y="1580">rec[14]</text>
<rect x="3792" y="1712" width="32" height="32" stroke="black" fill="black"/>
<text dominant-baseline="central" text-anchor="middle" font-family="monospace" font-size="24" x="3808" y="1728" fill="white">MR</text>
<text text-anchor="middle" font-family="monospace" font-size="8" x="3808" y="1708">rec[15]</text>
<rect x="3856" y="1584" width="160" height="32" stroke="black" fill="lightgray"/>
<text dominant-baseline="central" text-anchor="middle" font-family="monospace" font-size="16" x="3936" y="1600">DETECTOR</text>
<text text-anchor="middle" font-family="monospace" font-size="8" x="3936" y="1580">D6 = rec[14]</text>
<rect x="3856" y="1712" width="160" height="32" stroke="black" fill="lightgray"/>
<text dominant-baseline="central" text-anchor="middle" font-family="monospace" font-size="16" x="3936" y="1728">DETECTOR</text>
<text text-anchor="middle" font-family="monospace" font-size="8" x="3936" y="1708">D7 = rec[15]</text>
<path d="M3716,40 L3716,32 L4028,32 L4028,40 " stroke="black" fill="none"/>
<path d="M3716,1784 L3716,1792 L4028,1792 L4028,1784 " stroke="black" fill="none"/>
<rect x="4048" y="1584" width="160" height="32" stroke="black" fill="lightgray"/>
<text dominant-baseline="central" text-anchor="middle" font-family="monospace" font-size="16" x="4128" y="1600">DETECTOR</text>
<text dominant-baseline="hanging" text-anchor="middle" font-family="monospace" font-size="8" x="4128" y="1620">coords=(20)</text>
<text text-anchor="middle" font-family="monospace" font-size="8" x="4128" y="1580">D8 = rec[14]</text>
<rect x="4240" y="1136" width="224" height="32" stroke="black" fill="lightgray"/>
<text dominant-baseline="central" text-anchor="middle" font-family="monospace" font-size="16" x="4352" y="1152">DETECTOR</text>
<text dominant-baseline="hanging" text-anchor="middle" font-family="monospace" font-size="8" x="4352" y="1172">coords=(12)</text>
<text text-anchor="middle" font-family="monospace" font-size="8" x="4352" y="1132">D9 = rec[10]*rec[11]</text>
<rect x="4240" y="560" width="416" height="32" stroke="black" fill="lightgray"/>
<text dominant-baseline="central" text-anchor="middle" font-family="monospace" font-size="16" x="4448" y="576">DETECTOR</text>
<text dominant-baseline="hanging" text-anchor="middle" font-family="monospace" font-size="8" x="4448" y="596">coords=(13)</text>
<text text-anchor="middle" font-family="monospace" font-size="8" x="4448" y="556">D10 = rec[6]*rec[8]*rec[11]*rec[12]*rec[13]</text>
</svg>